<svg id="vector" xmlns="http://www.w3.org/2000/svg" width="176" height="285" viewBox="0 0 176 285"><path fill="?attr/colorOnSurface" d="m130.3,20.14c-0.13,-0.01 -0.25,0.01 -0.37,0.05 -0.63,0.22 -1.31,0.86 -1.93,1.8 -4.91,7.46 -10.35,35.39 -11,56.46 -0.12,3.78 -0.12,4.74 -0.02,4.78 0.03,0.01 1.16,0.02 2.51,0.01 1.35,-0.01 4.48,-0.02 6.95,-0.02 2.47,-0.01 6.8,-0.02 9.62,-0.04 2.82,-0.01 5.75,-0.02 6.53,-0.02 0.77,-0 1.44,-0.01 1.47,-0.02 0.1,-0.02 -0.04,-4.77 -0.22,-7.83 -0.8,-13.47 -3.28,-28.97 -6.6,-41.37 -0.71,-2.66 -2.98,-8.96 -3.74,-10.4 -1.11,-2.1 -2.3,-3.35 -3.2,-3.41zM87.09,20.47c-0.13,-0.01 -0.25,0.01 -0.37,0.05 -0.63,0.22 -1.31,0.86 -1.93,1.8 -4.91,7.46 -10.35,35.39 -11,56.46 -0.12,3.78 -0.12,4.74 -0.02,4.78 0.03,0.01 1.16,0.02 2.51,0.01 1.35,-0.01 4.48,-0.02 6.95,-0.02 2.47,-0.01 6.8,-0.02 9.62,-0.04 2.82,-0.01 5.75,-0.02 6.53,-0.02 0.77,-0 1.44,-0.01 1.47,-0.02 0.1,-0.02 -0.04,-4.77 -0.22,-7.83C99.82,62.18 97.35,46.68 94.03,34.28 93.31,31.61 91.05,25.31 90.29,23.88 89.18,21.78 87.99,20.53 87.09,20.47ZM43.78,21.17c-0.13,-0.01 -0.25,0.01 -0.37,0.05 -0.63,0.22 -1.31,0.87 -1.93,1.81 -4.91,7.46 -10.35,35.39 -11,56.46 -0.12,3.78 -0.12,4.74 -0.02,4.78 0.03,0.01 1.16,0.02 2.51,0.01 1.35,-0.01 4.48,-0.02 6.95,-0.02 2.47,-0.01 6.8,-0.02 9.62,-0.04 2.82,-0.01 5.75,-0.02 6.53,-0.02 0.77,-0 1.44,-0.01 1.47,-0.02 0.1,-0.02 -0.04,-4.77 -0.22,-7.83C56.52,62.88 54.04,47.37 50.72,34.97 50,32.31 47.74,26.01 46.98,24.58 45.87,22.48 44.68,21.23 43.78,21.17ZM130.07,26.26c0.04,0.02 -0.22,1.52 -0.57,3.33 -2.98,15.22 -4.83,32.93 -4.93,47.28 -0.01,1.86 -0.07,2.42 -0.24,2.5 -0.21,0.1 -3.27,0.11 -3.48,0.02 -0.12,-0.06 -0.02,-2.92 0.26,-6.92 0.89,-13.03 3.49,-28.77 6.46,-39.12 0.86,-2.99 2.33,-7.16 2.5,-7.08zM86.86,26.59c0.04,0.02 -0.22,1.52 -0.57,3.33 -2.98,15.22 -4.83,32.93 -4.93,47.28h-0c-0.01,1.86 -0.07,2.42 -0.24,2.5 -0.21,0.1 -3.27,0.11 -3.48,0.02 -0.12,-0.06 -0.02,-2.92 0.26,-6.92 0.89,-13.03 3.49,-28.77 6.46,-39.12 0.86,-2.99 2.33,-7.16 2.5,-7.08zM43.55,27.28c0.04,0.02 -0.22,1.52 -0.57,3.33 -2.98,15.22 -4.83,32.93 -4.93,47.28 -0.01,1.86 -0.07,2.42 -0.24,2.5 -0.21,0.1 -3.27,0.11 -3.48,0.02 -0.12,-0.06 -0.02,-2.92 0.26,-6.92 0.89,-13.03 3.49,-28.77 6.46,-39.12 0.86,-2.99 2.33,-7.16 2.5,-7.08zM144.36,86.06c-0.66,0.01 -11.43,0.05 -15.26,0.06 -11.02,0.03 -12.57,0.04 -12.58,0.08 -0.02,0.05 0.02,13.44 0.05,16.58l0.02,2.24 -1.86,6.65 -1.86,6.65 0.02,2.03c0.02,1.93 0.04,5.73 0.05,13.61 0,1.97 0.02,4.97 0.02,6.67 0.01,1.7 0.03,5.61 0.04,8.7 0.03,9.12 0.05,13.55 0.07,17.19 0.01,1.89 0.02,4.92 0.02,6.74 0,1.82 0.02,5.64 0.03,8.49 0.01,2.86 0.02,5.44 0.01,5.74 -0.01,0.3 0.01,0.56 0.04,0.58 0.05,0.03 3.3,0.02 12.33,-0.01 10.93,-0.04 14.67,-0.05 18.61,-0.05v-0c2.32,0 4.29,-0.04 4.38,-0.08 0.1,-0.05 0.16,-0.97 0.15,-2.26 -0.01,-1.2 -0.02,-4.01 -0.03,-6.25 -0.01,-2.24 -0.02,-6.5 -0.03,-9.48 -0.01,-2.97 -0.03,-7.43 -0.03,-9.9 -0.02,-5.56 -0.05,-13.21 -0.08,-19.58 -0.01,-2.66 -0.02,-6.23 -0.03,-7.93 -0,-1.7 -0.02,-5.43 -0.03,-8.28 -0.01,-2.86 -0.02,-5.35 -0,-5.55 0.01,-0.2 -0.84,-3.35 -1.89,-7l-1.92,-6.64 -0.01,-4.19c-0.01,-2.31 -0.01,-5.59 -0.01,-7.29 -0,-6.33 -0.03,-7.52 -0.21,-7.52zM101.15,86.4c-0.66,0.01 -11.43,0.05 -15.26,0.06 -11.02,0.03 -12.57,0.04 -12.58,0.08 -0.02,0.05 0.02,13.44 0.05,16.58l0.02,2.24 -1.86,6.65 -1.86,6.65 0.02,2.03c0.02,1.93 0.04,5.73 0.05,13.61 0,1.97 0.02,4.97 0.02,6.67 0.01,1.7 0.03,5.61 0.04,8.7 0.03,9.12 0.05,13.55 0.07,17.19 0.01,1.89 0.02,4.92 0.02,6.74 0,1.82 0.02,5.64 0.03,8.49 0.01,2.86 0.02,5.44 0.01,5.74 -0.01,0.3 0.01,0.56 0.04,0.58 0.05,0.03 3.3,0.02 12.33,-0.01 10.93,-0.04 14.67,-0.05 18.61,-0.05l0,-0c2.32,0 4.29,-0.04 4.38,-0.08 0.1,-0.05 0.16,-0.97 0.15,-2.26 -0.01,-1.2 -0.02,-4.01 -0.03,-6.25 -0.01,-2.24 -0.02,-6.5 -0.03,-9.48 -0.01,-2.97 -0.03,-7.43 -0.03,-9.9 -0.02,-5.56 -0.05,-13.21 -0.08,-19.58 -0.01,-2.66 -0.02,-6.23 -0.03,-7.93 -0,-1.7 -0.02,-5.43 -0.03,-8.28 -0.01,-2.86 -0.01,-5.35 -0,-5.55 0.01,-0.2 -0.84,-3.35 -1.89,-7l-1.92,-6.64 -0.01,-4.19c-0.01,-2.31 -0.01,-5.59 -0.01,-7.29 -0,-6.33 -0.04,-7.52 -0.21,-7.52zM57.84,87.09c-0.66,0.01 -11.43,0.05 -15.26,0.06 -11.02,0.03 -12.57,0.04 -12.58,0.08 -0.02,0.05 0.02,13.44 0.05,16.58l0.02,2.24 -1.86,6.65 -1.86,6.65 0.02,2.03c0.02,1.93 0.04,5.73 0.05,13.61 0,1.97 0.02,4.97 0.02,6.67 0.01,1.7 0.03,5.61 0.04,8.7 0.03,9.12 0.05,13.55 0.07,17.19 0.01,1.89 0.02,4.92 0.02,6.74 0,1.82 0.02,5.64 0.03,8.49 0.01,2.86 0.02,5.44 0.01,5.74 -0.01,0.3 0.01,0.56 0.04,0.58 0.05,0.03 3.3,0.02 12.33,-0.01 10.93,-0.04 14.67,-0.05 18.61,-0.05 2.32,0 4.29,-0.04 4.38,-0.08 0.1,-0.05 0.16,-0.97 0.15,-2.26 -0.01,-1.2 -0.02,-4.01 -0.03,-6.25 -0.01,-2.24 -0.02,-6.5 -0.03,-9.48 -0.01,-2.97 -0.03,-7.43 -0.03,-9.9 -0.02,-5.56 -0.05,-13.21 -0.08,-19.58 -0.01,-2.66 -0.02,-6.23 -0.03,-7.93 -0,-1.7 -0.02,-5.43 -0.03,-8.28 -0.01,-2.86 -0.02,-5.35 -0,-5.55 0.01,-0.2 -0.84,-3.35 -1.89,-7l-1.92,-6.64 -0.01,-4.19c-0.01,-2.31 -0.01,-5.59 -0.01,-7.29 -0,-6.33 -0.04,-7.52 -0.21,-7.52zM122.58,89.97c0.77,0.03 1.47,0.09 1.49,0.16 0.03,0.09 0.06,1.04 0.06,2.11 -0,1.07 0.01,4.37 0.02,7.34 0.01,2.97 0.01,5.59 0,5.83 -0.01,0.24 -0.84,3.34 -1.84,6.88 -1.81,6.43 -1.82,6.45 -1.81,8.1 0,1.61 0.01,3.65 0.07,16.53 0.01,3.4 0.03,7.76 0.03,9.69 0.01,5.18 0.03,11.46 0.05,15.44 0.01,1.93 0.03,5.84 0.04,8.7 0.01,2.86 0.02,7.05 0.04,9.32 0.01,2.27 0.01,4.14 -0,4.17 -0.04,0.07 -3.51,0.07 -3.66,-0 -0.07,-0.03 -0.13,-2.2 -0.14,-4.83 -0.01,-2.62 -0.03,-6.35 -0.03,-8.28 -0.01,-1.93 -0.02,-5.94 -0.03,-8.91 -0.01,-2.97 -0.03,-7.43 -0.04,-9.9 -0.02,-5.63 -0.05,-11.46 -0.07,-19.37 -0.01,-3.4 -0.03,-7.97 -0.04,-10.16l-0.02,-3.98 1.84,-6.54 1.84,-6.54 -0.01,-4.47c-0.04,-11.52 -0.04,-11.21 0.22,-11.25 0.36,-0.06 1.22,-0.07 2,-0.05zM79.37,90.3c0.77,0.03 1.47,0.09 1.49,0.16 0.03,0.09 0.06,1.04 0.06,2.11 -0,1.07 0.01,4.37 0.02,7.34 0.01,2.97 0.01,5.59 0,5.83 -0.01,0.24 -0.84,3.34 -1.84,6.88 -1.81,6.43 -1.82,6.45 -1.81,8.1 0,1.61 0.01,3.65 0.07,16.53 0.01,3.4 0.03,7.76 0.03,9.69 0.01,5.18 0.03,11.46 0.05,15.44 0.01,1.93 0.03,5.84 0.04,8.7 0.01,2.86 0.03,7.05 0.04,9.32h-0c0.01,2.27 0.01,4.14 -0,4.17 -0.04,0.07 -3.51,0.07 -3.66,-0 -0.07,-0.03 -0.13,-2.2 -0.14,-4.83 -0.01,-2.62 -0.03,-6.35 -0.03,-8.28 -0.01,-1.93 -0.02,-5.94 -0.03,-8.91 -0.01,-2.97 -0.03,-7.43 -0.04,-9.9 -0.02,-5.63 -0.05,-11.46 -0.07,-19.37 -0.01,-3.4 -0.03,-7.97 -0.04,-10.16l-0.02,-3.98 1.84,-6.54 1.84,-6.54 -0.01,-4.47c-0.04,-11.52 -0.04,-11.21 0.22,-11.25 0.36,-0.06 1.22,-0.07 2,-0.05zM36.06,90.99c0.77,0.03 1.47,0.09 1.49,0.16 0.03,0.09 0.06,1.04 0.06,2.11 -0,1.07 0.01,4.37 0.02,7.34 0.01,2.97 0.01,5.6 0,5.83 -0.01,0.24 -0.84,3.34 -1.84,6.88 -1.81,6.43 -1.82,6.45 -1.81,8.1 0,1.61 0.01,3.65 0.07,16.53 0.01,3.4 0.03,7.76 0.03,9.69 0.01,5.18 0.03,11.46 0.05,15.44 0.01,1.93 0.03,5.84 0.04,8.7 0.01,2.86 0.02,7.05 0.04,9.32 0.01,2.27 0.01,4.14 -0,4.17 -0.04,0.07 -3.51,0.07 -3.66,-0 -0.07,-0.03 -0.13,-2.2 -0.14,-4.83 -0.01,-2.62 -0.03,-6.35 -0.03,-8.28 -0.01,-1.93 -0.02,-5.94 -0.03,-8.91 -0.01,-2.97 -0.03,-7.43 -0.04,-9.9 -0.02,-5.63 -0.05,-11.46 -0.07,-19.37 -0.01,-3.4 -0.03,-7.97 -0.04,-10.16l-0.02,-3.98 1.84,-6.54 1.84,-6.54 -0.01,-4.47c-0.04,-11.52 -0.04,-11.21 0.22,-11.25 0.36,-0.06 1.22,-0.07 2,-0.04zM138.89,190.92c-2.97,0.01 -7.42,0.03 -9.9,0.04 -3.92,0.01 -14.06,0.05 -15.33,0.06 -0.25,0 -0.47,0.04 -0.49,0.08 -0.11,0.25 0.03,8.18 0.14,8.23 0.08,0.03 2.48,0.04 5.33,0.03 2.85,-0.02 7.62,-0.04 10.59,-0.05 2.97,-0.01 6.64,-0.03 8.14,-0.03 1.5,-0.01 4.6,-0.02 6.88,-0.03 2.28,-0.01 4.21,-0.03 4.29,-0.06 0.08,-0.03 0.14,-0.25 0.14,-0.5 -0,-0.25 -0.01,-2.09 -0.03,-4.08 -0.02,-2.87 -0.06,-3.64 -0.23,-3.67 -0.21,-0.05 -0.59,-0.05 -9.55,-0.01zM95.68,191.25c-2.97,0.01 -7.43,0.03 -9.9,0.04 -3.92,0.01 -14.06,0.05 -15.33,0.06 -0.25,0 -0.47,0.04 -0.49,0.08 -0.11,0.25 0.03,8.18 0.15,8.23 0.08,0.03 2.48,0.04 5.33,0.03 2.85,-0.02 7.62,-0.04 10.59,-0.05 2.97,-0.01 6.64,-0.03 8.14,-0.03 1.5,-0.01 4.6,-0.02 6.88,-0.03 2.28,-0.01 4.21,-0.03 4.29,-0.06 0.08,-0.03 0.14,-0.25 0.14,-0.5 -0,-0.25 -0.01,-2.09 -0.03,-4.08 -0.02,-2.87 -0.07,-3.64 -0.23,-3.67 -0.21,-0.05 -0.59,-0.05 -9.55,-0.01zM52.37,191.95c-2.97,0.01 -7.42,0.03 -9.9,0.04 -3.92,0.01 -14.06,0.05 -15.33,0.06 -0.25,0 -0.47,0.04 -0.49,0.08 -0.11,0.25 0.03,8.18 0.14,8.23 0.08,0.03 2.48,0.04 5.33,0.03 2.85,-0.02 7.62,-0.04 10.59,-0.05 2.97,-0.01 6.64,-0.03 8.14,-0.03 1.5,-0.01 4.6,-0.02 6.88,-0.03 2.28,-0.01 4.21,-0.03 4.29,-0.06 0.08,-0.03 0.14,-0.25 0.14,-0.5 -0,-0.25 -0.01,-2.09 -0.03,-4.08 -0.02,-2.87 -0.06,-3.64 -0.23,-3.67 -0.21,-0.05 -0.59,-0.05 -9.55,-0.01zM118.48,193.26c0.83,-0 1.67,0 1.89,0.01l0.39,0.01 -0.01,0.89c-0.01,0.49 -0.01,1.3 -0,1.8v0c0,0.5 -0.02,0.95 -0.04,1.01 -0.08,0.16 -3.62,0.11 -3.68,-0.05 -0.03,-0.08 -0.05,-0.94 -0.04,-1.91l0.01,-1.76zM75.27,193.59c0.83,-0 1.67,0 1.89,0.01l0.39,0.01 -0.01,0.89c-0.01,0.49 -0.01,1.3 -0.01,1.8v0c0,0.5 -0.02,0.95 -0.04,1.01 -0.08,0.16 -3.62,0.11 -3.68,-0.05 -0.03,-0.08 -0.05,-0.94 -0.04,-1.91l0.01,-1.76zM31.96,194.28c0.83,-0 1.67,0 1.89,0.01l0.39,0.01 -0.01,0.89c-0.01,0.49 -0.01,1.3 -0,1.8v0c0,0.5 -0.02,0.96 -0.04,1.01 -0.08,0.16 -3.62,0.11 -3.68,-0.05 -0.03,-0.08 -0.05,-0.94 -0.04,-1.91l0.01,-1.76zM120.59,212.16c-3.26,-0 -5.72,0.31 -8.84,1.12 -5.48,1.42 -10.06,3.93 -14.95,8.2 -1.69,1.47 -5.53,5.39 -6.82,6.97l-0.23,0.28 0.33,0.38c0.66,0.76 2.21,2.6 3.42,4.05 0.68,0.82 1.26,1.5 1.29,1.51 0.03,0.01 0.46,-0.45 0.97,-1.03 3.9,-4.42 6.92,-7.23 9.95,-9.26 3.7,-2.47 8.1,-3.99 12.69,-4.39 1.17,-0.1 4.4,-0.04 5.43,0.1 5.24,0.73 9.61,2.74 13.18,6.06 3.01,2.81 4.87,6.34 5.41,10.25 0.1,0.76 0.1,2.79 0,3.57 -0.5,3.71 -2.16,6.98 -5,9.82 -3.61,3.61 -8.36,5.82 -14.06,6.53 -1.11,0.14 -4.89,0.12 -6.05,-0.04 -5.95,-0.78 -10.61,-3.03 -15.77,-7.62 -2.85,-2.54 -5.64,-5.62 -12.36,-13.68 -7.39,-8.86 -10.79,-12.43 -14.76,-15.52 -6.35,-4.94 -13.26,-7.31 -21.3,-7.3 -1.8,0 -2.82,0.07 -4.5,0.3 -6.21,0.86 -12.15,3.49 -16.7,7.42 -1.47,1.27 -3.2,3.17 -4.29,4.7 -1.09,1.54 -2.24,3.68 -2.85,5.31 -1.43,3.83 -1.84,8.1 -1.16,12.1 1.14,6.72 5.26,12.79 11.47,16.93 2.41,1.6 4.52,2.64 7.25,3.58 2.65,0.9 5.43,1.46 8.46,1.68 4.17,0.31 8.99,-0.32 13.19,-1.72 5.46,-1.82 10.06,-4.79 15.11,-9.75 1.7,-1.67 4.73,-4.95 4.69,-5.07 -0.06,-0.16 -4.93,-5.95 -5.01,-5.95 -0.03,0 -0.32,0.31 -0.64,0.68 -4.28,4.92 -7.93,8.24 -11.32,10.29 -7.59,4.58 -17.3,5.07 -24.91,1.27 -4.14,-2.07 -7.38,-5.2 -9.21,-8.89 -0.99,-2 -1.44,-3.65 -1.62,-5.85 -0.26,-3.23 0.72,-6.88 2.6,-9.69 3.44,-5.13 9.86,-8.7 17.02,-9.46 1.2,-0.13 3.62,-0.13 4.94,-0 5.6,0.54 10.4,2.64 15.24,6.67 3.32,2.77 6.08,5.76 13.37,14.5 5.37,6.44 7.64,8.98 10.58,11.87 7.05,6.93 13.78,10.22 22.51,11.02 1.5,0.14 4.53,0.16 5.89,0.04 7.81,-0.69 14.59,-3.74 19.72,-8.87 2.11,-2.11 3.61,-4.2 4.89,-6.79 0.99,-2.01 1.57,-3.68 1.98,-5.71 0.36,-1.77 0.43,-2.58 0.43,-4.57 -0,-1.95 -0.08,-2.8 -0.39,-4.42 -1.24,-6.38 -5.31,-12.24 -11.28,-16.27 -3.12,-2.1 -6.87,-3.72 -10.56,-4.55 -2.52,-0.57 -4.62,-0.79 -7.43,-0.79z" stroke-width="0.5" id="path_0"/></svg>