<svg id="vector" xmlns="http://www.w3.org/2000/svg" width="958" height="339" viewBox="0 0 958 339"><path fill="?attr/colorOnSurface" d="m408.46,332.6c-2.53,-0.75 -4.81,-2.29 -6.43,-4.34 -0.48,-0.61 -0.8,-1.23 -0.7,-1.38 0.09,-0.15 0.06,-0.2 -0.08,-0.12 -0.5,0.31 -5.65,-11.04 -8.6,-18.94 -3.1,-8.32 -7.85,-23.64 -8.95,-28.87 -0.08,-0.37 -0.63,-2.59 -1.23,-4.93 -5.44,-21.25 -10.67,-54.61 -13.06,-83.17 -0.16,-1.89 -0.45,-3.75 -0.65,-4.13 -0.49,-0.94 -1.72,-2.07 -2.63,-2.41 -1.09,-0.41 -3.51,-0.35 -4.65,0.13 -1.37,0.57 -1.88,1.1 -2.76,2.84 -0.42,0.84 -1.2,1.85 -1.75,2.27l-0.98,0.75 -17.86,0.07 -17.86,0.07 -1.22,-0.64c-3.05,-1.61 -3.46,-1.87 -3.3,-2.12 0.09,-0.15 0.03,-0.18 -0.14,-0.08 -0.17,0.1 -1.96,-0.74 -3.97,-1.87 -3.33,-1.87 -4.03,-2.15 -7.67,-3.08 -2.2,-0.56 -4.24,-1.02 -4.53,-1.03 -0.29,-0.01 -2.31,0.62 -4.47,1.39l-3.94,1.41 -1.09,2.27c-6.12,12.76 -6.5,13.67 -6.49,15.33 0.02,1.94 0.47,2.88 2.29,4.7 0.74,0.75 1.52,1.78 1.74,2.29 0.95,2.27 0.13,5.39 -1.74,6.6 -1.25,0.81 -2.4,1.11 -6.28,1.62 -4.2,0.55 -4.74,0.8 -5.9,2.71 -1.67,2.75 -4.39,7.37 -4.39,7.46 0,0.04 -0.59,1.07 -1.3,2.29 -0.72,1.21 -2.58,4.42 -4.15,7.14 -1.56,2.71 -2.95,5.11 -3.09,5.33 -0.13,0.22 -1.23,2.13 -2.43,4.25 -1.64,2.88 -2.22,4.16 -2.3,5.07 -0.11,1.25 0.04,1.57 2.2,4.52 0.73,1 0.9,2.8 0.36,3.84 -1.14,2.21 -2.71,2.68 -8.46,2.52l-3.91,-0.11 -13.07,-3.15c-7.19,-1.73 -13.97,-3.36 -15.07,-3.61 -10,-2.3 -13.82,-3.31 -14.56,-3.82 -0.46,-0.32 -1.86,-1.75 -3.12,-3.19 -3.31,-3.78 -3.35,-4.6 -0.47,-8.59 0.85,-1.17 3.74,-5.25 6.42,-9.07 7.15,-10.17 9.78,-13.89 11.4,-16.13 2.95,-4.1 5.28,-7.38 6.33,-8.93 0.99,-1.47 4.83,-6.91 7.46,-10.58 0.6,-0.83 2.27,-3.2 3.73,-5.26 1.45,-2.06 2.76,-3.67 2.91,-3.58 0.15,0.09 0.18,0.03 0.08,-0.13 -0.1,-0.16 0.31,-0.99 0.91,-1.84 0.6,-0.85 1.95,-2.75 2.99,-4.21 8.75,-12.29 9.03,-12.73 10.47,-16.56 1.56,-4.15 2.17,-10.28 1.46,-14.78 -0.96,-6.08 -3.77,-11.55 -8.24,-16.02 -2.42,-2.42 -3.69,-3.34 -10.57,-7.64 -5.28,-3.3 -6.39,-3.87 -9.36,-4.79l-2.35,-0.73 -12.8,-0.09c-13.31,-0.09 -14.67,-0.01 -18,1.05 -3.21,1.02 -4.91,2 -9.66,5.56l-2.31,1.73 -0.01,6.1c-0.01,6.64 -0.16,7.57 -1.41,9.09 -1.46,1.77 -1.84,1.84 -10.6,2 -6.64,0.12 -7.99,0.21 -8.67,0.58 -1.96,1.07 -3.31,3.21 -3.32,5.23 -0.01,2.15 -1.26,4.12 -3.26,5.15 -1.33,0.68 -4.2,0.68 -5.7,0 -1.98,-0.9 -3.31,-3.13 -3.31,-5.53 0,-2.12 -1.94,-4.55 -4.12,-5.16 -1.57,-0.44 -5.08,-0.25 -6.3,0.35 -0.83,0.4 -27.47,27.06 -28.04,28.05 -0.3,0.53 -2.33,1.64 -3.62,1.98 -2.33,0.63 -5.26,-0.87 -6.43,-3.28 -0.51,-1.04 -0.55,-1.62 -0.55,-6.94 0,-3.35 -0.12,-6.29 -0.29,-6.97 -0.36,-1.42 -1.8,-3.16 -3.19,-3.88 -1.46,-0.75 -3.17,-0.67 -8.77,0.39 -6.54,1.24 -6.35,1.12 -10.14,6.57 -4.92,7.09 -9.24,12.97 -9.44,12.85 -0.14,-0.08 -0.17,-0.02 -0.07,0.14 0.1,0.16 -0.88,1.77 -2.17,3.57 -1.3,1.8 -3,4.21 -3.78,5.34 -0.78,1.13 -1.55,1.98 -1.69,1.89 -0.15,-0.09 -0.19,-0.04 -0.1,0.11 0.09,0.15 -0.6,1.36 -1.54,2.69 -2.25,3.19 -2.36,3.42 -2.2,4.63 0.13,1.01 1.11,2.24 7.8,9.92 0.49,0.56 0.97,1.38 1.07,1.82 0.21,0.96 -0.34,2.44 -0.83,2.25 -0.21,-0.08 -0.29,0.01 -0.21,0.22 0.32,0.83 -1.29,0.91 -8.06,0.39 -5.81,-0.44 -9.86,-0.57 -9.58,-0.29 0.05,0.05 -0.2,0.4 -0.55,0.78 -0.35,0.38 -0.64,0.98 -0.64,1.33 0,0.9 -0.62,2.26 -1.31,2.87 -0.5,0.44 -1.08,0.54 -3.84,0.62 -3.65,0.11 -5.03,-0.19 -5.81,-1.28 -0.36,-0.5 -1.19,-5.18 -3.31,-18.53 -1.56,-9.83 -3.12,-19.67 -3.47,-21.87 -1.16,-7.2 -4.68,-29.28 -5.05,-31.73 -0.2,-1.32 -0.93,-5.88 -1.61,-10.13 -0.68,-4.25 -1.34,-8.39 -1.46,-9.2 -0.24,-1.62 -3.3,-20.77 -4.56,-28.51L9.67,86.6 10.19,83.91c0.29,-1.48 1.2,-6.29 2.03,-10.69 1.79,-9.54 1.89,-9.96 2.6,-10.73 0.55,-0.6 0.59,-0.6 8.87,-0.6h8.32l0.67,0.67c0.42,0.42 0.73,1.1 0.82,1.8 0.1,0.77 0.38,1.33 0.85,1.73l0.7,0.6 86.45,0.01c67.31,0.01 86.58,0.08 87.03,0.33 0.32,0.18 1.53,1.25 2.71,2.37 1.17,1.13 2.17,2.01 2.22,1.96 0.05,-0.05 3.84,0.08 8.43,0.29 7.57,0.34 8.41,0.34 9.15,-0.04 1.33,-0.69 1.58,-1.7 1.59,-6.45 0.01,-5.95 0,-5.94 6.53,-5.94h4.44l0.77,-0.77c0.5,-0.5 0.84,-1.18 0.95,-1.91 0.11,-0.67 0.48,-1.48 0.92,-1.96l0.74,-0.83 14.54,-0.13 14.54,-0.13 0.85,-0.8c0.47,-0.44 1.07,-1.28 1.34,-1.87 0.47,-1.01 0.49,-2.13 0.5,-19.73 0.01,-20.92 -0.11,-19.66 1.96,-21.31l1.02,-0.82h6.33,6.33l1.07,0.71c1.9,1.26 2.09,1.98 2.09,8.09 0,5.72 -0.07,6.08 -1.55,7.77 -1.08,1.23 -1.21,2.11 -1.23,7.97 -0.02,6.23 0.14,6.95 1.82,8.53l0.85,0.8 12.98,0.13c11.69,0.12 13.07,0.18 13.83,0.6 0.71,0.39 1.76,1.39 3.42,3.24 3.7,4.15 4.95,5.38 5.87,5.8 1.02,0.47 4.85,0.49 97.83,0.49l96.76,0.01 1.63,-1.6 1.63,-1.6h8.42,8.42l1.85,1.87 1.85,1.87h3.92,3.92l1.6,-1.6 1.6,-1.6h5.78,5.78l2.16,2.13 2.16,2.13 5.88,-0 5.88,-0 1.57,-1.6 1.57,-1.6h4.71,4.71l1.31,1.33 1.31,1.33h5.75,5.75l1.31,-1.33 1.31,-1.33h5.58,5.58l1.83,1.89 1.83,1.89 5.8,-0.03 5.8,-0.03 1.74,-1.72 1.74,-1.72h7.47,7.47l1.99,2 1.99,2h4.55,4.55l1.45,-1.47 1.45,-1.47h5.41,5.41v1.47,1.47h4.4,4.4L700.35,31.22 700.35,6.69h5.09,5.09l0.78,0.78 0.78,0.78v3.76c0,2.92 0.1,3.98 0.44,4.75 0.24,0.55 0.43,1.05 0.42,1.13 -0.01,0.08 0.78,0.18 1.76,0.22 2.21,0.1 2.99,0.45 3.58,1.64 0.42,0.84 0.47,1.92 0.47,10.35l0,9.41 0.65,0.65 0.65,0.65h10.96c12.02,0 12.11,0.01 12.93,1.59 0.31,0.6 0.4,1.73 0.4,4.82v4.03l0.78,0.78c0.73,0.73 0.91,0.78 2.93,0.78 2,0 2.21,0.05 3.02,0.78l0.87,0.78 0.13,5.25 0.13,5.25 0.75,0.64c0.43,0.37 1.09,0.64 1.55,0.64 1.08,0 1.75,0.4 2.23,1.33 0.33,0.63 0.4,1.96 0.4,6.92v6.15l63.07,0.07 63.07,0.07v-2.33,-2.33h30.37,30.37l0.83,0.77 0.83,0.77v8.18,8.18l-0.78,0.78c-0.7,0.7 -0.95,0.78 -2.53,0.78 -1.54,0 -1.85,0.09 -2.59,0.75 -0.77,0.69 -0.86,0.94 -1.01,2.8 -0.13,1.63 -0.29,2.17 -0.77,2.65l-0.6,0.6 -24.33,0.07c-17.92,0.05 -24.52,-0.01 -25.07,-0.24 -0.88,-0.36 -1.29,-1.01 -1.65,-2.61 -0.18,-0.78 -0.52,-1.36 -1.02,-1.73l-0.75,-0.56 -62.44,-0.07c-40.76,-0.04 -62.95,0.02 -63.89,0.2 -1.66,0.31 -2.91,1.16 -3.8,2.6 -0.58,0.93 -0.63,1.36 -0.76,5.85l-0.13,4.84 -0.81,1.15c-1.04,1.48 -2.42,2.24 -4.42,2.45 -0.87,0.09 -1.97,0.36 -2.45,0.6 -0.47,0.24 -2.36,1.9 -4.19,3.7 -1.83,1.79 -3.72,3.46 -4.19,3.7 -0.78,0.4 -3.36,0.44 -29.23,0.44h-28.38l-4.27,-4.27 -4.27,-4.27 -99.03,0c-95.94,0 -99.11,0.02 -101.46,0.51 -9.07,1.87 -16.6,8.54 -19.44,17.24 -1.31,4 -1.46,6.21 -1.46,22 0,13.9 -0.01,14.19 -0.56,15.14 -0.89,1.55 -1.89,2.18 -4.09,2.56 -2.42,0.42 -3.57,1.1 -4.42,2.6 -0.64,1.13 -0.66,1.25 -0.75,8.75 -0.19,14.64 1.28,27.92 4.91,44.53 1.08,4.92 1.77,7.74 3.58,14.53 2.03,7.61 5.55,18.36 10.02,30.53 1.02,2.79 4.34,10.91 6.26,15.33 3.62,8.35 3.52,8.06 3.66,10.56 0.08,1.38 -0,2.87 -0.2,3.73 -0.51,2.17 -2.01,4.83 -3.69,6.51 -1.29,1.29 -2.23,1.86 -6.44,3.91 -9.33,4.54 -12.81,6.1 -13.11,5.92 -0.17,-0.11 -0.23,-0.07 -0.14,0.08 0.16,0.25 -1.26,0.98 -9.42,4.82 -1.69,0.79 -4.27,2.02 -5.73,2.73 -1.47,0.71 -4.35,2.09 -6.4,3.07 -2.05,0.98 -4.09,1.96 -4.53,2.18 -2.36,1.17 -3.54,1.48 -6.13,1.58 -2.03,0.08 -3.05,-0.01 -4.29,-0.37zM443.43,290.45c1.57,-0.71 2.89,-2.4 3.59,-4.58 0.81,-2.51 0.65,-3.38 -1.49,-7.86 -0.98,-2.05 -2.43,-5.1 -3.24,-6.79 -0.81,-1.69 -3.27,-6.85 -5.47,-11.47 -2.2,-4.62 -4.72,-9.9 -5.6,-11.73 -4.39,-9.15 -6.78,-15.15 -8.98,-22.47 -2.05,-6.8 -3.02,-11.51 -5.76,-27.8 -3.83,-22.76 -3.33,-20.27 -4.35,-21.81 -2.26,-3.42 -7.68,-3.35 -10.04,0.13 -1.18,1.73 -1.32,3 -0.71,6.12 1.57,8.03 2.83,14.48 4.17,21.43 3.48,17.96 3.71,19.02 5.12,24.27 2.13,7.93 3.14,10.55 13.26,34.67 4.5,10.71 8.42,20.06 8.73,20.79 0.31,0.73 0.58,1.45 0.62,1.6 0.03,0.15 0.39,0.98 0.8,1.83 0.82,1.74 2.2,3.26 3.45,3.8 1.24,0.54 4.6,0.47 5.91,-0.12zM347.56,184.06c2.46,-0.7 5.42,-2.3 6.77,-3.65 0.23,-0.23 0.56,-0.33 0.73,-0.23 0.19,0.11 0.24,0.08 0.13,-0.1 -0.1,-0.16 0.4,-1.05 1.1,-1.97 2.87,-3.79 3.25,-5.69 3.26,-16.11l0,-8.02 -2.2,-2.13c-4.83,-4.69 -8.08,-5.96 -15.17,-5.96 -4.18,0 -6.85,0.5 -9.51,1.77 -2.46,1.17 -5.2,3.72 -6.8,6.31 -1.18,1.9 -1.19,1.96 -1.8,6.6l-0.61,4.68 0.72,2.89c0.4,1.59 0.92,3.26 1.17,3.72 0.24,0.46 0.42,0.92 0.39,1.03 -0.03,0.11 0.1,0.17 0.28,0.13 0.18,-0.04 0.3,0.08 0.27,0.27 -0.04,0.18 0.04,0.33 0.17,0.33 0.13,0 0.85,0.63 1.6,1.4l1.36,1.4 -0.86,0.23c-1.6,0.42 -3.78,0.08 -5.03,-0.77 -2.44,-1.67 -4.53,-4.81 -5.15,-7.71 -0.22,-1.03 -0.7,-5.53 -1.07,-10 -0.83,-10.01 -0.96,-11.2 -1.19,-11.2 -0.1,0 -1.24,0.71 -2.54,1.58 -4.61,3.09 -6.78,5.86 -8.03,10.27 -0.63,2.24 -0.41,7.57 0.42,10.01 1.55,4.57 4.26,8.31 7.69,10.65 1.54,1.05 7.42,4.09 9.11,4.71 0.7,0.26 3.65,0.35 12,0.36 10.04,0.02 11.23,-0.03 12.81,-0.48zM78.2,127.49c1.02,-0.29 2.28,-1.38 2.84,-2.46 0.21,-0.4 0.38,-1.33 0.38,-2.08 0,-0.75 -0.17,-1.68 -0.38,-2.08 -0.56,-1.08 -1.82,-2.16 -2.84,-2.46 -0.56,-0.16 -8.05,-0.26 -19.19,-0.26h-18.28l-1.19,0.6c-0.65,0.33 -1.46,1 -1.78,1.5 -1.63,2.45 -0.82,5.59 1.78,6.9l1.19,0.6h18.28c11.14,0 18.63,-0.1 19.19,-0.26zM529.33,108.04c2.66,-1.21 2.8,-4.88 0.25,-6.44 -0.79,-0.48 -1.58,-0.51 -16.19,-0.51l-15.36,-0 -0.91,0.61c-1.82,1.22 -2.29,3.5 -1.07,5.21 1.19,1.67 0.81,1.64 17.24,1.64 14.1,0 15,-0.03 16.05,-0.51zM577.49,108.16c1.45,-0.6 2.25,-1.81 2.25,-3.38 0,-1.13 -0.13,-1.46 -1,-2.44l-1,-1.13 -15.63,-0.07c-17.29,-0.08 -16.69,-0.13 -17.79,1.62 -0.42,0.68 -0.5,1.15 -0.39,2.32 0.2,2.08 0.25,2.36 0.41,2.34 0.08,-0.01 0.68,0.23 1.34,0.55 1.18,0.56 1.44,0.57 16.03,0.58 12.48,0 14.98,-0.06 15.78,-0.39zM626.31,107.94c2.31,-1.52 2.32,-4.94 0,-6.31 -0.9,-0.53 -1.29,-0.55 -16.28,-0.55 -15.12,0 -15.37,0.01 -16.26,0.56 -2.44,1.51 -2.19,5.11 0.45,6.45 0.86,0.44 2.05,0.47 16.14,0.4 14.14,-0.07 15.26,-0.1 15.95,-0.55zM674.38,108.01c2.53,-1.22 2.69,-4.87 0.28,-6.36 -0.89,-0.55 -1.14,-0.56 -16.21,-0.56 -14.31,0 -15.36,0.03 -16.21,0.49 -1.8,0.97 -2.42,3.44 -1.28,5.14 1.26,1.89 0.75,1.84 17.38,1.84 14.48,0 14.95,-0.02 16.04,-0.54zM722.69,108.05c2.58,-1.32 2.61,-5.24 0.05,-6.56 -0.65,-0.34 -3.05,-0.4 -15.97,-0.4 -17.21,0 -16.62,-0.07 -17.62,2 -0.65,1.34 -0.67,1.98 -0.09,3.27 0.24,0.55 0.41,1.11 0.38,1.26 -0.03,0.15 0.01,0.19 0.11,0.1 0.09,-0.09 0.61,0.05 1.16,0.32 0.92,0.46 1.95,0.49 16,0.5 14.25,0.01 15.06,-0.02 16,-0.5zM530.2,76.7c2.13,-2.04 1.31,-5.48 -1.49,-6.26 -0.68,-0.19 -5.99,-0.29 -15.57,-0.28 -13.82,0 -14.59,0.03 -15.68,0.52 -0.87,0.4 -1.27,0.79 -1.66,1.66 -0.66,1.45 -0.66,1.91 0,3.28 1,2.06 0.27,1.98 17.92,1.92l15.65,-0.05zM577.78,77.21c1.31,-0.64 1.91,-1.65 1.89,-3.21 -0.02,-1.69 -0.76,-2.82 -2.26,-3.42 -0.94,-0.38 -2.85,-0.43 -15.54,-0.43 -9,0 -14.83,0.1 -15.44,0.27 -0.55,0.15 -1.34,0.68 -1.8,1.21 -0.69,0.79 -0.82,1.15 -0.82,2.33 0,1.58 0.43,2.36 1.7,3.14 0.8,0.49 1.54,0.51 16.13,0.51 13.2,0 15.41,-0.05 16.13,-0.41zM626.01,77.33c2.45,-1.17 2.67,-4.82 0.39,-6.49 -0.74,-0.54 -1.06,-0.55 -15.67,-0.63 -9.58,-0.05 -15.28,0.02 -15.93,0.2 -3.05,0.82 -3.71,5.06 -1.04,6.69 0.82,0.5 1.45,0.52 16.24,0.52 10.59,0 15.58,-0.09 16,-0.29zM674.67,77.1c2.27,-1.39 2.26,-4.93 -0.02,-6.31 -0.79,-0.48 -1.61,-0.5 -16.16,-0.5 -16.94,0 -16.34,-0.06 -17.52,1.71 -1.14,1.7 -0.53,4.17 1.27,5.14 0.85,0.46 1.9,0.49 16.25,0.49 14.74,-0 15.37,-0.02 16.19,-0.52zM722.74,77.22c2.34,-1.21 2.56,-5.12 0.36,-6.29 -0.34,-0.18 -0.62,-0.42 -0.62,-0.54 0,-0.34 -29.72,-0.3 -30.98,0.04 -3.07,0.83 -3.8,4.77 -1.21,6.59l0.86,0.6h15.42c13.11,0 15.53,-0.06 16.18,-0.4z" id="path_0"/></svg>