<svg id="vector" xmlns="http://www.w3.org/2000/svg" width="1125" height="800" viewBox="0 0 1125 800"><path fill="?attr/colorOnSurface" d="M112,73L112,81.5L112,90L243.5,90L375,90L375,81.5L375,73L243.5,73L112,73zM538,117.9C532.6,117.9 530.7,118.1 530.6,118.5C530.5,118.7 530.5,127.3 530.6,137.5C530.7,147.7 530.9,171.3 531,190C531.1,208.7 531.4,241.4 531.6,262.7C531.8,284 532,306.2 532,312L532,312C532,317.9 532.1,322.9 532.2,323.2C532.4,323.9 568.2,322.7 591.3,321.3C693.1,314.7 810.2,295.5 903.8,270C923.9,264.5 971.5,247.2 982.3,241.4C1000.4,231.7 1010.1,221.3 1007.6,214.3C1005.8,209.6 1001,204.4 993.9,199.8C937.3,162.9 726,122.7 566.7,118.5C552.4,118.1 543.4,117.9 538,117.9zM409,141L284.2,141.3L159.5,141.5L159.2,149.8L158.9,158L283.9,158L409,158L409,149.5L409,141zM564,147.3C571.6,147.2 589.5,147.9 612.2,149.4C710.7,155.7 829.7,174.8 908.1,196.9C930.8,203.3 962.3,214.3 961.7,215.6C961.6,215.9 950.3,214 936.5,211.4C821.4,189.3 687.5,175.9 579,175.6C564.9,175.6 560.7,175.2 560.1,173.9C559.3,172.3 559.1,149.2 559.9,147.7C560,147.4 561.4,147.3 564,147.3zM189,210L189,218.5L189,227L325.2,226.8L461.5,226.5L461.8,218.3L462.1,210L325.5,210L189,210zM409,278L284.2,278.3L159.5,278.5L159.2,286.8L158.9,295L283.9,295L409,295L409,286.5L409,278zM112,347L112,355.5L112,364L239.5,364L367,364L367,355.5L367,347L239.5,347L112,347zM563.7,436.8C563.7,436.8 563.4,437.5 563.1,438.5C562.8,439.5 559.3,450.4 555.3,462.9C551.2,475.3 544.1,497.4 539.4,512C534.7,526.6 529.6,542.4 528.1,547.2C526.5,552 525.2,555.9 525.2,555.9C525.2,555.9 497,555.9 462.6,555.8C428.2,555.7 400,555.7 400,555.7C400,555.7 402.1,557.3 421,571C422.9,572.3 434.4,580.7 461.3,600.1C473.5,609 479.1,613 486.3,618.2C487.8,619.3 491.7,622.1 495.1,624.5C498.4,626.9 501.2,629 501.3,629.1C501.4,629.2 501.4,629.4 500.5,631.9C498.9,636.9 495.1,648.5 487.2,672.7C485.2,678.9 482.5,687 481.3,690.7C474.7,711 462.7,747.7 462.6,748C462.5,748.3 462.3,748.4 464.9,746.5C466.1,745.6 467.8,744.4 468.7,743.7C469.5,743.1 475.2,739 481.3,734.5C487.4,730.1 493.6,725.6 495,724.5C496.5,723.4 504.1,717.9 512,712.1C519.8,706.4 527.6,700.7 529.3,699.5C532.8,697 546.8,686.7 557.1,679.2L563.7,674.4L569.1,678.3C572,680.4 578.4,685.1 583.3,688.7C596.9,698.6 614.5,711.4 618.5,714.3C623.8,718.2 642.2,731.7 647.7,735.6C650.3,737.5 654.3,740.4 656.5,742C658.7,743.7 661.5,745.7 662.7,746.6C663.9,747.5 664.9,748.2 664.9,748.2C664.9,748.1 659.4,731.3 653.8,714.1C653,711.8 651,705.6 649.4,700.5C647.7,695.4 646,690.3 645.6,689.1C645.2,687.9 643.5,682.7 641.8,677.6C638.7,668 638.1,666 632.9,650.4C626.6,630.9 626,629.1 626,629.1C626.1,629.1 638.1,620.4 653.4,609.3C661,603.8 670.8,596.7 675.2,593.5C679.6,590.3 684.3,586.9 685.7,586C687,585 690.5,582.5 693.3,580.4C712.9,566.3 718.5,562.2 721.3,560.2C723.1,558.9 725.2,557.4 726,556.8L727.5,555.7L726.8,555.7C726.5,555.7 698.3,555.7 664.2,555.8C630.1,555.9 602.3,555.9 602.2,555.9C602.2,555.9 601.4,553.3 594.7,532.8C592.1,524.6 589.4,516.1 588.7,514C588,512 586.5,507.1 585.2,503.4C580.2,487.7 571.6,461.1 569.9,455.8C568.9,452.6 567.1,447 565.9,443.4C564.7,439.8 563.8,436.8 563.7,436.8z" id="path_0"/></svg>