<svg id="vector" xmlns="http://www.w3.org/2000/svg" width="120" height="84" viewBox="0 0 120 84"><path fill="?attr/colorOnSurface" d="m36.57,78.7c-0.32,-0.03 -11.57,-1.06 -15.96,-1.47 -2.18,-0.2 -3.65,-0.37 -3.78,-0.42 -0.29,-0.12 -0.42,-0.33 -0.5,-0.81 -0.13,-0.82 0.12,-1.55 0.8,-2.31 0.57,-0.64 1,-1.23 0.94,-1.29 -0.03,-0.03 -0.57,-0.13 -1.21,-0.23 -0.64,-0.1 -1.22,-0.19 -1.29,-0.2 -0.18,-0.03 -0.69,-0.54 -0.69,-0.69 0,-0.08 -0.25,-0.27 -0.74,-0.57 -0.82,-0.5 -1.99,-1.27 -2.39,-1.58 -0.14,-0.11 -0.34,-0.33 -0.45,-0.5 -0.16,-0.25 -0.19,-0.37 -0.19,-0.71 0,-0.5 0.04,-0.71 0.54,-2.63 0.7,-2.72 1.55,-4.66 4.1,-9.42 1.49,-2.78 1.81,-3.34 2.77,-4.81 0.96,-1.47 1.37,-2.19 2.1,-3.63 1.03,-2.05 2.21,-4.88 2.87,-6.85 0.84,-2.52 1.2,-4.89 0.96,-6.28 -0.24,-1.39 -0.74,-2.44 -1.78,-3.77 -0.88,-1.12 -2.67,-2.23 -4.16,-2.59 -0.29,-0.07 -0.91,-0.15 -1.36,-0.17 -0.46,-0.02 -0.92,-0.08 -1.03,-0.12 -0.57,-0.23 -0.96,-0.85 -0.96,-1.53 -0,-0.34 0.04,-0.49 0.3,-1.02 0.17,-0.34 0.43,-0.8 0.59,-1.03 0.28,-0.39 0.29,-0.42 0.32,-0.99 0.04,-0.76 0.13,-1.18 0.28,-1.36 0.12,-0.14 0.12,-0.14 -0.03,-0.25l-0.15,-0.11 0.02,-4.26c0.02,-3.11 0.04,-4.33 0.1,-4.5 0.12,-0.36 0.35,-0.66 0.66,-0.88 0.27,-0.19 0.33,-0.2 1.09,-0.23l0.8,-0.03 0.28,-0.95c0.15,-0.52 0.33,-1 0.39,-1.06 0.15,-0.15 1.37,-0.16 1.52,-0 0.06,0.06 0.23,0.53 0.38,1.06l0.28,0.96 40.91,0.02c32.68,0.01 40.92,-0 40.96,-0.07 0.03,-0.05 0.16,-0.41 0.29,-0.81 0.33,-0.98 0.38,-1.03 1.14,-1.03 0.33,0 0.64,0.02 0.7,0.04 0.06,0.02 0.45,0.45 0.87,0.95l0.76,0.91 0.51,0.04c0.62,0.05 1.04,0.19 1.3,0.43 0.21,0.2 0.47,0.73 0.54,1.1 0.03,0.18 0.1,0.28 0.26,0.37 0.29,0.17 0.47,0.53 0.56,1.1 0.13,0.88 0.07,4.6 -0.1,5.66 -0.02,0.14 -0.14,0.38 -0.26,0.55l-0.23,0.29v2.39c0,1.69 -0.03,2.67 -0.1,3.36 -0.14,1.3 -0.34,2.39 -0.47,2.53 -0.06,0.06 -0.21,0.13 -0.34,0.14 -0.23,0.02 -0.24,0.03 -0.35,0.45 -0.15,0.58 -0.22,0.73 -0.43,0.98 -0.33,0.39 -0.46,0.42 -1.85,0.45 -0.69,0.02 -1.48,0.06 -1.75,0.1 -0.59,0.09 -0.66,0.04 -0.77,-0.52l-0.08,-0.38h-0.88,-0.88l-0.08,0.33c-0.09,0.37 -0.3,0.57 -0.68,0.68 -0.14,0.04 -1.62,0.1 -3.52,0.14 -1.8,0.04 -4.52,0.1 -6.05,0.14 -1.53,0.04 -4.24,0.08 -6.02,0.1 -2.91,0.04 -3.29,0.05 -3.72,0.17 -1.49,0.39 -2.71,1.52 -3.18,2.94 -0.21,0.63 -0.4,1.81 -0.47,2.9 -0.15,2.36 0.26,4.99 1.12,7.25 0.19,0.49 0.36,1.01 0.38,1.15 0.05,0.35 -0.11,0.72 -0.35,0.84 -0.22,0.11 -0.6,0.13 -7.33,0.31 -2.62,0.07 -5.19,0.14 -5.72,0.16 -2.96,0.11 -6.47,0.18 -7.23,0.15 -1.42,-0.06 -2.54,-0.35 -3.49,-0.91 -1,-0.59 -1.84,-0.99 -2.29,-1.1 -1.26,-0.3 -2.89,0.27 -3.86,1.35 -0.57,0.63 -1.25,2.14 -2.25,4.98 -0.26,0.74 -0.85,2.3 -1.3,3.47 -4.38,11.23 -4.6,11.81 -4.94,13.55 -0.24,1.19 -0.31,1.94 -0.29,3.15l0.02,1.09 -0.2,0.39c-0.15,0.29 -0.26,0.42 -0.46,0.53 -0.25,0.13 -0.35,0.14 -1.97,0.12 -1.65,-0.01 -1.7,-0.01 -1.7,0.11 0,0.15 -0.01,0.15 1.32,0.29 1.1,0.11 1.83,0.28 2.11,0.49 0.36,0.27 0.32,1.14 -0.06,1.67 -0.22,0.3 -0.51,0.52 -1.4,1.06 -0.91,0.55 -1.45,0.72 -2.1,0.67zM61.94,45.22c1.01,-0.04 3.59,-0.1 5.72,-0.13 3.78,-0.07 3.9,-0.07 4.51,-0.23 1.27,-0.32 2.18,-1.02 2.88,-2.2 0.57,-0.96 0.81,-2.2 0.79,-3.98 -0.02,-2.01 -0.15,-2.86 -0.55,-3.74 -0.69,-1.5 -2.2,-2.58 -4.03,-2.88 -0.61,-0.1 -1.74,-0.02 -4.24,0.31 -0.95,0.12 -2.45,0.32 -3.34,0.43 -0.89,0.11 -1.67,0.23 -1.73,0.26 -0.07,0.03 -0.17,0.34 -0.29,0.8 -0.15,0.6 -0.19,0.95 -0.22,1.75 -0.04,1.1 0.07,2.43 0.22,2.64 0.05,0.07 0.9,1.05 1.88,2.17 1.92,2.19 1.95,2.24 1.8,2.76 -0.15,0.49 -0.52,0.63 -1.17,0.43 -0.18,-0.05 -0.35,-0.1 -0.37,-0.1 -0.09,-0 -0.05,0.14 0.12,0.38 0.29,0.43 0.15,0.94 -0.27,0.94 -0.23,0 -1.01,-0.34 -1.61,-0.7 -1.36,-0.83 -2.46,-1.84 -3.39,-3.14 -0.67,-0.94 -0.94,-1.42 -1.05,-1.86 -0.08,-0.3 -0.08,-0.31 -0.42,-0.38 -0.64,-0.14 -2.39,-0.68 -2.81,-0.87 -0.23,-0.11 -0.46,-0.19 -0.51,-0.19 -0.18,0 -0.39,1.26 -0.33,1.98 0.15,1.78 1.15,3.51 2.59,4.48 0.98,0.66 1.79,0.94 3.17,1.1 0.39,0.05 0.84,0.04 2.65,-0.02z" stroke-width="0.25" id="path_0"/></svg>